<svg height="100%" width="100%" id="svg" viewBox="0 0 1440 600" xmlns="http://www.w3.org/2000/svg" class="transition duration-300 ease-in-out delay-150"><defs><linearGradient id="gradient"><stop offset="5%" stop-color="#002bdc88"></stop><stop offset="95%" stop-color="#32ded488"></stop></linearGradient></defs><path d="M 0,600 C 0,600 0,200 0,200 C 108.64114832535884,193.01435406698567 217.28229665071768,186.02870813397132 313,193 C 408.7177033492823,199.97129186602868 491.5119617224881,220.89952153110045 569,216 C 646.4880382775119,211.10047846889955 718.6698564593302,180.3732057416268 828,157 C 937.3301435406698,133.6267942583732 1083.8086124401914,117.60765550239233 1192,126 C 1300.1913875598086,134.39234449760767 1370.0956937799042,167.19617224880383 1440,200 C 1440,200 1440,600 1440,600 Z" stroke="none" stroke-width="0" fill="url(#gradient)" class="transition-all duration-300 ease-in-out delay-150"></path><defs><linearGradient id="gradient"><stop offset="5%" stop-color="#002bdcff"></stop><stop offset="95%" stop-color="#32ded4ff"></stop></linearGradient></defs><path d="M 0,600 C 0,600 0,400 0,400 C 85.20574162679426,378.81339712918657 170.41148325358853,357.6267942583732 278,370 C 385.58851674641147,382.3732057416268 515.5598086124402,428.3062200956938 603,424 C 690.4401913875598,419.6937799043062 735.3492822966507,365.14832535885165 818,341 C 900.6507177033493,316.85167464114835 1021.0430622009569,323.10047846889955 1131,338 C 1240.956937799043,352.89952153110045 1340.4784688995214,376.4497607655502 1440,400 C 1440,400 1440,600 1440,600 Z" stroke="none" stroke-width="0" fill="url(#gradient)" class="transition-all duration-300 ease-in-out delay-150"></path></svg>