<svg id="wave" style="transform:rotate(0deg); transition: 0.3s" viewBox="0 0 1440 190" version="1.1" xmlns="http://www.w3.org/2000/svg"><defs><linearGradient id="sw-gradient-0" x1="0" x2="0" y1="1" y2="0"><stop stop-color="rgba(243, 106, 62, 1)" offset="0%"></stop><stop stop-color="rgba(255, 179, 11, 1)" offset="100%"></stop></linearGradient></defs><path style="transform:translate(0, 0px); opacity:1" fill="url(#sw-gradient-0)" d="M0,19L26.7,38C53.3,57,107,95,160,98.2C213.3,101,267,70,320,57C373.3,44,427,51,480,69.7C533.3,89,587,120,640,110.8C693.3,101,747,51,800,53.8C853.3,57,907,114,960,139.3C1013.3,165,1067,158,1120,133C1173.3,108,1227,63,1280,44.3C1333.3,25,1387,32,1440,57C1493.3,82,1547,127,1600,139.3C1653.3,152,1707,133,1760,114C1813.3,95,1867,76,1920,60.2C1973.3,44,2027,32,2080,47.5C2133.3,63,2187,108,2240,117.2C2293.3,127,2347,101,2400,95C2453.3,89,2507,101,2560,101.3C2613.3,101,2667,89,2720,95C2773.3,101,2827,127,2880,136.2C2933.3,146,2987,139,3040,114C3093.3,89,3147,44,3200,22.2C3253.3,0,3307,0,3360,15.8C3413.3,32,3467,63,3520,88.7C3573.3,114,3627,133,3680,129.8C3733.3,127,3787,101,3813,88.7L3840,76L3840,190L3813.3,190C3786.7,190,3733,190,3680,190C3626.7,190,3573,190,3520,190C3466.7,190,3413,190,3360,190C3306.7,190,3253,190,3200,190C3146.7,190,3093,190,3040,190C2986.7,190,2933,190,2880,190C2826.7,190,2773,190,2720,190C2666.7,190,2613,190,2560,190C2506.7,190,2453,190,2400,190C2346.7,190,2293,190,2240,190C2186.7,190,2133,190,2080,190C2026.7,190,1973,190,1920,190C1866.7,190,1813,190,1760,190C1706.7,190,1653,190,1600,190C1546.7,190,1493,190,1440,190C1386.7,190,1333,190,1280,190C1226.7,190,1173,190,1120,190C1066.7,190,1013,190,960,190C906.7,190,853,190,800,190C746.7,190,693,190,640,190C586.7,190,533,190,480,190C426.7,190,373,190,320,190C266.7,190,213,190,160,190C106.7,190,53,190,27,190L0,190Z"></path></svg>