<svg height="100%" width="100%" id="svg" viewBox="0 0 1440 600" xmlns="http://www.w3.org/2000/svg" class="transition duration-300 ease-in-out delay-150"><defs><linearGradient id="gradient"><stop offset="5%" stop-color="#002bdc88"></stop><stop offset="95%" stop-color="#32ded488"></stop></linearGradient></defs><path d="M 0,600 C 0,600 0,200 0,200 C 115.54066985645932,222.64114832535887 231.08133971291863,245.2822966507177 326,234 C 420.91866028708137,222.7177033492823 495.21531100478467,177.51196172248802 594,154 C 692.7846889952153,130.48803827751198 816.0574162679425,128.66985645933013 916,144 C 1015.9425837320575,159.33014354066987 1092.555023923445,191.80861244019138 1176,204 C 1259.444976076555,216.19138755980862 1349.7224880382773,208.0956937799043 1440,200 C 1440,200 1440,600 1440,600 Z" stroke="none" stroke-width="0" fill="url(#gradient)" class="transition-all duration-300 ease-in-out delay-150" transform="rotate(-180 720 300)"></path><defs><linearGradient id="gradient"><stop offset="5%" stop-color="#002bdcff"></stop><stop offset="95%" stop-color="#32ded4ff"></stop></linearGradient></defs><path d="M 0,600 C 0,600 0,400 0,400 C 82.60287081339715,378.17224880382776 165.2057416267943,356.34449760765546 260,354 C 354.7942583732057,351.65550239234454 461.77990430622003,368.79425837320576 559,372 C 656.22009569378,375.20574162679424 743.6746411483255,364.4784688995215 846,360 C 948.3253588516745,355.5215311004785 1065.5215311004786,357.29186602870817 1167,365 C 1268.4784688995214,372.70813397129183 1354.2392344497607,386.3540669856459 1440,400 C 1440,400 1440,600 1440,600 Z" stroke="none" stroke-width="0" fill="url(#gradient)" class="transition-all duration-300 ease-in-out delay-150" transform="rotate(-180 720 300)"></path></svg>